<?xml version="1.0" encoding="UTF-8"?><svg xmlns="http://www.w3.org/2000/svg" viewBox="0 0 160.15 138.41"><defs><style>.d{fill:none;stroke:#003755;stroke-linecap:round;stroke-miterlimit:10;stroke-width:6.4px;}</style></defs><g id="a"/><g id="b"><g id="c"><g><path class="d" d="M70.2,79.38l-59.15-4.38c-4.43-.33-7.86-4.02-7.86-8.46V31.93c0-4.72,3.82-8.54,8.54-8.54H148.41c4.72,0,8.54,3.82,8.54,8.54v34.61c0,4.44-3.43,8.13-7.86,8.46l-59.15,4.38"/><path class="d" d="M148.54,76.34v50.33c0,4.72-3.82,8.54-8.54,8.54H20.15c-4.72,0-8.54-3.82-8.54-8.54v-50.33"/><path class="d" d="M75.37,67.38h9.41c2.85,0,5.17,2.31,5.17,5.17v16.13c0,2.85-2.31,5.17-5.17,5.17h-9.41c-2.85,0-5.17-2.31-5.17-5.17v-16.13c0-2.85,2.31-5.17,5.17-5.17Z"/><path class="d" d="M54.17,22.35V10.03c0-3.77,3.06-6.83,6.83-6.83h38.15c3.77,0,6.83,3.06,6.83,6.83v12.32"/></g></g></g></svg>