<?xml version="1.0" encoding="UTF-8"?><svg xmlns="http://www.w3.org/2000/svg" viewBox="0 0 138.42 161.37"><defs><style>.d{fill:none;stroke:#003755;stroke-linecap:round;stroke-miterlimit:10;stroke-width:6.4px;}</style></defs><g id="a"/><g id="b"><g id="c"><g><path class="d" d="M51.98,88.34l-33.82,10.82c-8.91,2.85-14.95,11.13-14.95,20.48v34.99c0,1.95,1.58,3.54,3.54,3.54h124.95c1.95,0,3.54-1.58,3.54-3.54v-34.99c0-9.35-6.04-17.63-14.95-20.48l-33.91-10.85"/><path class="d" d="M86.45,74.13v12.94c0,3.94-2.32,7.55-5.96,9.05-3.01,1.24-6.94,2.37-11.28,2.37s-8.27-1.13-11.28-2.37c-3.64-1.5-5.96-5.11-5.96-9.05v-12.94"/><path class="d" d="M102.35,38.73c0,22.53-14.84,40.8-33.14,40.8s-33.14-18.27-33.14-40.8S50.91,3.2,69.21,3.2s33.14,13,33.14,35.53Z"/><line class="d" x1="31.4" y1="158.17" x2="31.4" y2="130.62"/><line class="d" x1="107.02" y1="158.17" x2="107.02" y2="130.62"/><path class="d" d="M51.98,90.79c3.87,14.43,9.62,28.86,17.24,43.29"/><path class="d" d="M86.45,90.79c-3.87,14.43-9.62,28.86-17.24,43.29"/><line class="d" x1="69.21" y1="134.08" x2="69.21" y2="158.17"/></g></g></g></svg>